<svg width="21" height="21" viewBox="0 0 21 21" fill="none" xmlns="http://www.w3.org/2000/svg">
<path d="M20.5005 10.2314C20.5005 4.70944 16.0225 0.231445 10.5005 0.231445C4.97849 0.231445 0.500488 4.70944 0.500488 10.2314C0.500488 15.7534 4.97849 20.2314 10.5005 20.2314C10.5592 20.2314 10.6177 20.2302 10.6763 20.2292V12.4446H8.52783V9.94077H10.6763V8.09827C10.6763 5.96143 11.9807 4.7984 13.8869 4.7984C14.7997 4.7984 15.5843 4.86646 15.813 4.89682V7.1301H14.4986C13.4616 7.1301 13.2608 7.62296 13.2608 8.34607V9.94077H15.7404L15.4172 12.4446H13.2608V19.8451C17.4406 18.6468 20.5005 14.796 20.5005 10.2314Z" fill="black"/>
</svg>
