<svg width="21" height="21" viewBox="0 0 21 21" fill="none" xmlns="http://www.w3.org/2000/svg">
<path d="M10.2788 0.231445C4.75681 0.231445 0.278809 4.70944 0.278809 10.2314C0.278809 15.7534 4.75681 20.2314 10.2788 20.2314C15.8008 20.2314 20.2788 15.7534 20.2788 10.2314C20.2788 4.70944 15.8008 0.231445 10.2788 0.231445ZM7.37292 15.3486H4.93747V8.02151H7.37292V15.3486ZM6.15527 7.021H6.1394C5.32214 7.021 4.79358 6.4584 4.79358 5.75528C4.79358 5.03629 5.33832 4.48926 6.17145 4.48926C7.00458 4.48926 7.51727 5.03629 7.53314 5.75528C7.53314 6.4584 7.00458 7.021 6.15527 7.021ZM16.1547 15.3486H13.7195V11.4288C13.7195 10.4437 13.3669 9.77185 12.4857 9.77185C11.8129 9.77185 11.4122 10.225 11.2361 10.6625C11.1718 10.8191 11.156 11.0379 11.156 11.2568V15.3486H8.72073C8.72073 15.3486 8.75262 8.70892 8.72073 8.02151H11.156V9.05896C11.4797 8.55969 12.0587 7.84955 13.3509 7.84955C14.9532 7.84955 16.1547 8.89676 16.1547 11.1473V15.3486Z" fill="black"/>
</svg>
