<svg width="97" height="24" viewBox="0 0 97 24" fill="none" xmlns="http://www.w3.org/2000/svg">
<g clip-path="url(#clip0)">
<path fill-rule="evenodd" clip-rule="evenodd" d="M24.0226 2.42095H24.1601C24.2472 2.42095 24.3131 2.4038 24.3577 2.36937C24.4024 2.33498 24.4247 2.28402 24.4247 2.21639C24.4247 2.14881 24.4035 2.09629 24.3612 2.05885C24.3187 2.02149 24.2585 2.00274 24.1805 2.00274H24.0226V2.42095ZM24.7933 3.22697H24.447L24.0226 2.6311V3.22697H23.7399V1.74239H24.1907C24.2778 1.74239 24.3489 1.75028 24.4038 1.76596C24.4586 1.78174 24.5093 1.80891 24.5558 1.84759C24.6655 1.93707 24.7204 2.05676 24.7204 2.20664C24.7204 2.32275 24.6901 2.41798 24.6296 2.49235C24.569 2.56666 24.4815 2.61656 24.3672 2.64196L24.7933 3.22697ZM24.2177 1.34629C23.963 1.34629 23.7378 1.44299 23.5421 1.63634C23.4323 1.74514 23.3457 1.87627 23.2824 2.02973C23.219 2.1832 23.1874 2.3403 23.1874 2.50103C23.1874 2.83336 23.292 3.11432 23.5014 3.34392C23.5975 3.44913 23.7082 3.53067 23.8332 3.58868C23.9582 3.64669 24.0864 3.67567 24.2177 3.67567C24.35 3.67567 24.4788 3.64669 24.6038 3.58868C24.7288 3.53067 24.84 3.44913 24.9374 3.34392C25.0358 3.23517 25.1124 3.10891 25.1673 2.96511C25.2222 2.8213 25.2496 2.67382 25.2496 2.52275C25.2496 2.35116 25.2188 2.18829 25.1571 2.03425C25.0954 1.88017 25.008 1.74753 24.8949 1.63634C24.6991 1.44299 24.4733 1.34629 24.2177 1.34629ZM24.2177 1.22442C24.5209 1.22442 24.7856 1.34173 25.0119 1.57625C25.2551 1.82889 25.3767 2.14442 25.3767 2.52275C25.3767 2.69567 25.3448 2.86247 25.2808 3.02325C25.2169 3.18403 25.1273 3.32487 25.0119 3.44572C24.9044 3.55815 24.7816 3.64492 24.6436 3.70594C24.5055 3.76696 24.3636 3.79754 24.2177 3.79754C24.0728 3.79754 23.9317 3.76696 23.7942 3.70594C23.6567 3.64492 23.5337 3.55815 23.4251 3.44572C23.1818 3.19187 23.0602 2.87577 23.0602 2.4974C23.0602 2.32457 23.0922 2.15772 23.1562 1.99694C23.22 1.83616 23.3103 1.69594 23.4268 1.57625C23.6542 1.34173 23.9178 1.22442 24.2177 1.22442ZM11.6301 1.82898C16.4344 1.82898 19.2795 2.10742 20.3992 2.24617C20.5285 3.47177 20.7932 6.60341 20.7932 11.7044C20.7932 16.797 20.5294 19.9268 20.3998 21.1568C19.2253 21.2945 16.2369 21.5799 11.6301 21.5799C6.99005 21.5799 3.89178 21.2904 2.68561 21.1535C2.5555 19.9505 2.29535 16.896 2.29535 11.7044C2.29535 6.50463 2.55628 3.44891 2.68619 2.24989C3.83732 2.11189 6.78688 1.82898 11.6301 1.82898ZM1.90296 0.738409C1.58072 0.790924 1.327 1.05948 1.27496 1.4031C1.25528 1.53286 0.793213 4.66378 0.793213 11.7044C0.793213 18.745 1.25528 21.8759 1.27496 22.0058C1.32767 22.3537 1.58703 22.6241 1.91408 22.6722C2.0564 22.6931 5.46932 23.1837 11.6301 23.1837C17.7936 23.1837 21.0444 22.6924 21.1797 22.6714C21.507 22.6208 21.7647 22.3478 21.8146 21.9988C21.8343 21.8617 22.2953 18.5604 22.2953 11.7044C22.2953 4.84854 21.8343 1.54718 21.8146 1.41002C21.7654 1.06595 21.5139 0.79509 21.1921 0.739517C21.0705 0.718467 18.1392 0.225098 11.6301 0.225098C5.12421 0.225098 2.03146 0.717404 1.90296 0.738409Z" fill="white"/>
<path fill-rule="evenodd" clip-rule="evenodd" d="M17.9497 15.7938L17.7822 4.51223C17.6056 3.89109 15.7491 4.42594 15.9431 5.10819L16.3257 12.9655L12.6589 6.17248C12.4706 5.51013 11.0988 5.933 11.2928 6.6152L11.6854 14.4075L7.90342 7.71366C7.85623 7.54778 7.7142 7.45423 7.5293 7.41771C6.95172 7.24798 5.88887 7.70032 6.0622 8.31019C6.28512 9.09432 8.18764 15.7875 8.18764 15.7875C8.30734 16.2084 8.31403 16.5509 8.20786 16.8151C8.10156 17.0794 7.926 17.2511 7.68137 17.3304C7.47157 17.3984 7.25587 17.3866 7.03415 17.295C6.81252 17.2036 6.65858 17.0057 6.61807 16.863C6.40959 16.1298 4.64299 16.769 4.83399 17.4411C5.02508 18.1131 5.50961 18.7753 6.19057 19.0857C6.87145 19.3963 7.62783 19.417 8.45929 19.1475C9.12436 18.932 9.61644 18.4687 9.93528 17.7575C10.2541 17.0465 10.298 16.2839 10.0667 15.4703C10.0667 15.4703 7.50481 10.0935 7.28098 9.30593L11.8928 17.7566C12.0433 18.2862 13.4379 17.7901 13.299 17.3016L12.9559 9.8991L16.5054 16.2612C16.6557 16.79 18.1003 16.3238 17.9497 15.7938Z" fill="white"/>
<path fill-rule="evenodd" clip-rule="evenodd" d="M29.6555 17.2785L29.3386 16.0208C30.1602 15.8094 30.3384 15.3972 30.3384 14.4777V9.77483H31.7835V14.573C31.7835 16.0946 31.0708 17.0036 29.6555 17.2785ZM34.7726 12.7763C34.2481 12.7763 34.0501 13.1779 34.0501 13.8966C34.0501 14.6152 34.258 15.0169 34.7726 15.0169C35.2972 15.0169 35.5051 14.6152 35.5051 13.8966C35.5051 13.1779 35.2972 12.7763 34.7726 12.7763ZM34.7726 16.2744C33.4858 16.2744 32.6247 15.3232 32.6247 13.8966C32.6247 12.4698 33.4858 11.508 34.7726 11.508C36.0594 11.508 36.9304 12.4698 36.9304 13.8966C36.9304 15.3127 36.0594 16.2744 34.7726 16.2744ZM40.2461 16.1265V13.6006C40.2461 12.9877 40.068 12.6917 39.6622 12.6917C39.3751 12.6917 39.1673 12.8607 38.9892 13.2202V16.1265H37.643V9.14062H38.9892V12.2162C39.2861 11.8252 39.7315 11.508 40.2165 11.508C41.0974 11.508 41.5923 12.2056 41.5923 13.516V16.1265H40.2461ZM45.2051 16.1265V13.5901C45.2051 12.9666 45.0565 12.6917 44.6211 12.6917C44.3538 12.6917 44.116 12.8713 43.9479 13.2202V16.1265H42.6019V11.6243H43.8487V12.3324H43.8686C44.116 11.804 44.5713 11.508 45.1357 11.508C45.997 11.508 46.5511 12.2372 46.5511 13.4843V16.1265H45.2051ZM53.1532 16.1265H52.1633L51.0941 12.2796H51.0742L50.0055 16.1265H49.0256L47.0956 9.77483H48.6989L49.2335 11.9096C49.2928 12.1316 49.4115 12.6706 49.5796 13.5371H49.5996L50.6189 9.77483H51.5594L52.5788 13.5371H52.5987C52.7473 12.734 52.856 12.195 52.9253 11.9096L53.4798 9.77483H55.0732L53.1532 16.1265ZM56.9737 12.6071C56.6076 12.6071 56.3598 12.9349 56.3204 13.516H57.617C57.607 12.9242 57.3896 12.6071 56.9737 12.6071ZM56.3204 14.3087C56.4291 14.8688 56.7757 15.1859 57.3202 15.1859C57.6369 15.1859 57.9042 15.0591 58.2109 14.816L58.8248 15.598C58.3396 16.0525 57.7656 16.2744 57.1218 16.2744C55.7759 16.2744 54.8951 15.3338 54.8951 13.9177C54.8951 12.5226 55.7759 11.508 57.0031 11.508C58.1416 11.508 58.9634 12.4063 58.9634 13.7591V14.3087H56.3204ZM60.9921 16.2744C60.2696 16.2744 59.6756 15.9891 59.3195 15.4925L59.9234 14.7739C60.2301 15.0908 60.6062 15.2494 60.9722 15.2494C61.2295 15.2494 61.3586 15.1647 61.3586 15.0169C61.3586 14.7949 61.1702 14.7526 60.8241 14.6258C59.8636 14.277 59.4183 13.8331 59.4183 13.051C59.4183 12.1316 60.1015 11.508 61.1009 11.508C61.606 11.508 62.0908 11.6454 62.6154 11.9307L62.2394 13.0088C61.8334 12.7552 61.4574 12.6388 61.1507 12.6388C60.8834 12.6388 60.7348 12.7552 60.7348 12.9455C60.7348 13.2096 60.9722 13.2519 61.3881 13.421C62.2688 13.7697 62.7046 14.0869 62.7046 14.8688C62.7046 15.7038 62.0513 16.2744 60.9921 16.2744ZM64.7039 16.2427C63.912 16.2427 63.5065 15.7883 63.5065 14.9216V12.4063H62.9914V11.6243H63.5065V9.92271H64.8525V11.6243H65.3871V12.4063H64.8525V14.8371C64.8525 15.1647 65.0206 15.3444 65.3277 15.3444H65.4066V16.1265C65.1492 16.2005 64.9118 16.2427 64.7039 16.2427ZM67.911 12.7763C67.3863 12.7763 67.1884 13.1779 67.1884 13.8966C67.1884 14.6152 67.3963 15.0169 67.911 15.0169C68.4356 15.0169 68.6435 14.6152 68.6435 13.8966C68.6435 13.1779 68.4356 12.7763 67.911 12.7763ZM67.911 16.2744C66.6239 16.2744 65.7631 15.3232 65.7631 13.8966C65.7631 12.4698 66.6239 11.508 67.911 11.508C69.1976 11.508 70.0688 12.4698 70.0688 13.8966C70.0688 15.3127 69.1976 16.2744 67.911 16.2744ZM73.3846 16.1265V13.5901C73.3846 12.9666 73.236 12.6917 72.8006 12.6917C72.5333 12.6917 72.2955 12.8713 72.1274 13.2202V16.1265H70.7814V11.6243H72.0282V12.3324H72.0481C72.2955 11.804 72.7508 11.508 73.3153 11.508C74.1761 11.508 74.7306 12.2372 74.7306 13.4843V16.1265H73.3846ZM79.9568 11.0323C79.521 10.7576 79.135 10.6097 78.7196 10.6097C77.4425 10.6097 76.2546 11.9096 76.2546 13.6641C76.2546 14.7739 76.8386 15.4713 77.7396 15.4713C78.0464 15.4713 78.373 15.4077 78.7291 15.281L79.0064 13.6111H78.3929L78.5311 12.8185H79.917L79.4322 15.725C78.7785 16.0946 78.185 16.2744 77.6703 16.2744C76.2945 16.2744 75.354 15.207 75.354 13.6641C75.354 12.5332 75.7499 11.5292 76.4924 10.7576C77.1557 10.0706 78.0264 9.67968 78.8777 9.67968C79.4023 9.67968 79.8875 9.83816 80.3329 10.1552L79.9568 11.0323ZM83.1635 12.4592C83.0547 12.4063 82.9261 12.3851 82.7874 12.3851C82.2528 12.3851 81.8175 12.9136 81.649 13.9177L81.2829 16.1265H80.4814L81.2235 11.6349H81.8569L81.8868 12.3429H81.9063C82.2035 11.7935 82.6193 11.508 83.0746 11.508C83.2527 11.508 83.4108 11.561 83.5694 11.6771L83.1635 12.4592ZM85.5587 12.3007C84.7074 12.3007 84.0048 13.1144 84.0048 14.277C84.0048 15.0274 84.3907 15.4819 85.0345 15.4819C85.8857 15.4819 86.5784 14.668 86.5784 13.4843C86.5784 12.7657 86.1825 12.3007 85.5587 12.3007ZM86.6573 15.4925C86.202 15.9997 85.6085 16.2744 84.9747 16.2744C83.896 16.2744 83.2029 15.4607 83.2029 14.1713C83.2029 13.5371 83.4407 12.8925 83.8562 12.3851C84.3314 11.804 84.9353 11.508 85.618 11.508C86.6573 11.508 87.3799 12.3429 87.3799 13.6006C87.3799 14.3194 87.1226 14.9851 86.6573 15.4925ZM91.3888 15.2705C91.3789 15.3127 91.3789 15.3444 91.3789 15.3761C91.3789 15.503 91.4382 15.5664 91.537 15.5664H91.5768L91.4776 16.1688C91.3589 16.2005 91.2402 16.2111 91.141 16.2111C90.765 16.2111 90.5571 16.0103 90.5276 15.6191H90.5077C90.1711 16.063 89.7851 16.2744 89.2804 16.2744C88.4686 16.2744 87.9938 15.7355 87.9938 14.7632C87.9938 14.5836 88.0133 14.4038 88.0431 14.2135L88.4586 11.6349H89.2704L88.845 14.2241C88.8151 14.4144 88.7952 14.5836 88.7952 14.7315C88.7952 15.2494 89.043 15.5136 89.5178 15.5136C90.2404 15.5136 90.6463 14.9216 90.8443 13.7169L91.1809 11.6349H91.9823L91.3888 15.2705ZM94.9619 12.269C94.2194 12.269 93.5068 13.125 93.5068 14.2876C93.5068 15.0486 93.8633 15.5136 94.4274 15.5136C95.2093 15.5136 95.902 14.6469 95.902 13.5371C95.902 12.7129 95.5555 12.269 94.9619 12.269ZM96.11 15.4395C95.6152 15.9997 95.0906 16.2744 94.4768 16.2744C93.9422 16.2744 93.5662 16.0525 93.3188 15.598H93.2989L92.883 18.1345H92.0616L93.1503 11.6349H93.8036L93.8633 12.0999H93.8828C94.1895 11.7193 94.6449 11.508 95.14 11.508C96.11 11.508 96.7533 12.3218 96.7533 13.5477C96.7533 14.3194 96.5159 14.9851 96.11 15.4395Z" fill="white"/>
</g>
<defs>
<clipPath id="clip0">
<rect width="96" height="23" fill="white" transform="translate(0.793213 0.183594)"/>
</clipPath>
</defs>
</svg>
