<svg width="122" height="46" viewBox="0 0 122 46" fill="none" xmlns="http://www.w3.org/2000/svg">
<path d="M0.304688 0L12.6985 17.9452V29.9651H20.2749V17.7255L7.79565 0H0.304688Z" fill="white"/>
<path d="M19.4634 7.80191L23.1875 13.2201L32.7114 0H24.9812L19.4634 7.80191Z" fill="white"/>
<path d="M72.4556 0.0422639C66.7413 0.0422639 61.7616 3.17824 59.1905 7.81036C59.1222 7.9287 53.536 18.8497 53.536 18.8497H53.5275C52.1096 21.5968 49.2225 23.4734 45.8998 23.4734C41.1593 23.4734 37.3241 19.6696 37.3241 14.9868C37.3241 10.3039 41.1678 6.50018 45.8998 6.50018C47.8217 6.50018 49.5898 7.13414 51.0162 8.19074L54.9283 2.99228C52.4085 1.11577 49.2908 0 45.8998 0C37.5376 0 30.7642 6.70305 30.7642 14.9783C30.7642 23.2536 37.5462 29.9566 45.8998 29.9566C51.6142 29.9566 56.5854 26.8207 59.1649 22.1885C59.2332 22.0702 64.8194 11.1492 64.8194 11.1492H64.828C66.2459 8.40206 69.1329 6.52554 72.4556 6.52554C77.1962 6.52554 81.0314 10.3293 81.0314 15.0121C81.0314 19.695 77.1876 23.4987 72.4556 23.4987C70.5338 23.4987 68.7656 22.8648 67.3392 21.8082L63.4272 27.0066C65.9469 28.8662 69.0731 29.982 72.4556 29.982C80.8178 29.982 87.5913 23.2789 87.5913 15.0037C87.5913 6.72841 80.8178 0.0422639 72.4556 0.0422639Z" fill="white"/>
<path d="M72.4556 0.0422639C66.7413 0.0422639 61.7615 3.17824 59.1905 7.81036C59.1222 7.9287 53.536 18.8497 53.536 18.8497H53.5275C52.1096 21.5968 49.2225 23.4734 45.8998 23.4734C41.1593 23.4734 37.3241 19.6696 37.3241 14.9868C37.3241 10.3039 41.1678 6.50018 45.8998 6.50018C47.8217 6.50018 49.5898 7.13414 51.0162 8.19074L54.9283 2.99228C52.4085 1.11577 49.2908 0 45.8998 0C37.5376 0 30.7642 6.70305 30.7642 14.9783C30.7642 23.2536 37.5462 29.9566 45.8998 29.9566C51.6142 29.9566 56.5854 26.8207 59.1649 22.1885C59.2332 22.0702 64.8194 11.1492 64.8194 11.1492H64.828C66.2459 8.40206 69.1329 6.52554 72.4556 6.52554C77.1962 6.52554 81.0313 10.3293 81.0313 15.0121C81.0313 19.695 77.1876 23.4987 72.4556 23.4987C70.5337 23.4987 68.7656 22.8648 67.3392 21.8082L63.4272 27.0066C65.9469 28.8662 69.0731 29.982 72.4556 29.982C80.8178 29.982 87.5913 23.2789 87.5913 15.0037C87.5913 6.72841 80.8178 0.0422639 72.4556 0.0422639Z" fill="white"/>
<path d="M91.8276 0V29.9989H100.6V13.6681L111.712 29.9989H120.075L99.1819 0H91.8276Z" fill="white"/>
<path d="M111.636 0V10.9463L120.075 24.0904V0H111.636Z" fill="white"/>
<path d="M82.0219 32.4673C84.3281 32.4673 85.3873 33.2957 85.8998 33.6676L84.704 35.9667C84.2513 35.6202 83.6021 35.1553 82.3123 35.1553C80.7492 35.1553 79.5107 35.9498 79.5107 37.7503C79.5107 39.6099 80.604 40.4467 82.1928 40.4467C82.449 40.4467 82.6967 40.4298 82.9188 40.4044V39.0689H81.4155V36.8458H85.7546V42.1119C85.2506 42.4077 84.1146 43.177 81.8853 43.177C78.759 43.177 76.2905 41.647 76.2905 37.8686C76.2905 34.1917 79.0324 32.4673 82.0219 32.4673Z" fill="white"/>
<path d="M93.0746 37.7927C92.9977 37.7758 92.8354 37.7504 92.5877 37.7504C91.6652 37.7504 91.0844 38.097 90.7684 38.4858V42.9996H87.7788V35.5104H90.6146V36.6177H90.6488C90.905 35.9584 91.5115 35.3245 93.0746 35.3245V37.7927Z" fill="white"/>
<path d="M97.8666 43.1769C95.8081 43.1769 93.8777 42.0189 93.8777 39.2464C93.8777 36.4823 95.7995 35.3328 97.8666 35.3328C99.9251 35.3328 101.855 36.4908 101.855 39.2464C101.855 42.0274 99.9336 43.1769 97.8666 43.1769ZM97.8666 37.6911C97.3199 37.6911 96.927 38.0968 96.927 39.2379C96.927 40.3622 97.3199 40.7679 97.8666 40.7679C98.4132 40.7679 98.8062 40.3622 98.8062 39.2379C98.8147 38.0968 98.4132 37.6911 97.8666 37.6911Z" fill="white"/>
<path d="M111.294 42.9996H108.458V42.2473H108.424C108.133 42.6192 107.561 43.1771 106.195 43.1771C104.683 43.1771 103.53 42.3233 103.53 40.1932V35.5104H106.519V39.6776C106.519 40.413 106.827 40.7258 107.416 40.7258C107.869 40.7258 108.176 40.4891 108.313 40.3031V35.502H111.302V42.9996H111.294Z" fill="white"/>
<path d="M118.153 43.1769C117.017 43.1769 116.564 42.7374 116.316 42.4584H116.282V46.0002H113.293V35.5103H116.129V36.2626H116.163C116.402 35.9329 117.008 35.3328 118.349 35.3328C120.032 35.3328 121.305 36.6091 121.305 39.1281C121.305 41.7231 119.989 43.1769 118.153 43.1769ZM117.179 37.6911C116.667 37.6911 116.393 37.9616 116.282 38.1222V40.3453C116.385 40.4974 116.65 40.7679 117.145 40.7679C117.828 40.7679 118.255 40.2607 118.255 39.221C118.255 38.1983 117.845 37.6911 117.179 37.6911Z" fill="white"/>
</svg>
