<svg width="29" height="29" viewBox="0 0 29 29" fill="none" xmlns="http://www.w3.org/2000/svg">
<g clip-path="url(#clip0)">
<path d="M14.6925 0.0977783C9.25626 0.0977783 4.83374 4.58981 4.83374 10.111V18.0848C4.83374 23.606 9.25626 28.0978 14.6925 28.0978C20.1284 28.0978 24.5512 23.6196 24.5512 18.1154V10.111C24.5512 4.58981 20.1284 0.0977783 14.6925 0.0977783ZM22.6969 18.1154C22.6969 22.5973 19.1063 26.2435 14.6925 26.2435C10.2789 26.2435 6.68808 22.5834 6.68808 18.0846V10.111C6.68808 5.61214 10.2789 1.95207 14.6925 1.95207C19.1064 1.95207 22.6969 5.61214 22.6969 10.111V18.1154Z" fill="white"/>
<path d="M14.6925 7.76221C14.1805 7.76221 13.7654 8.17729 13.7654 8.68938V11.9344C13.7654 12.4465 14.1805 12.8616 14.6925 12.8616C15.2046 12.8616 15.6197 12.4465 15.6197 11.9344V8.68938C15.6197 8.17729 15.2046 7.76221 14.6925 7.76221Z" fill="white"/>
</g>
<defs>
<clipPath id="clip0">
<rect width="28" height="28" fill="white" transform="translate(0.692383 0.0977783)"/>
</clipPath>
</defs>
</svg>
