<svg width="15" height="12" viewBox="0 0 15 12" fill="none" xmlns="http://www.w3.org/2000/svg">
<path d="M3.91614 0.925901C4.81214 0.925901 5.54814 1.2139 6.12414 1.7899C6.70014 2.34457 6.98814 3.08057 6.98814 3.9979C6.98814 4.42457 6.93481 4.85124 6.82814 5.2779C6.72147 5.70457 6.49747 6.34457 6.15614 7.1979L4.30014 11.8059H1.13214L2.50814 6.7499C1.97481 6.51524 1.55881 6.16324 1.26014 5.6939C0.961472 5.22457 0.812139 4.65924 0.812139 3.9979C0.812139 3.08057 1.10014 2.34457 1.67614 1.7899C2.27347 1.2139 3.02014 0.925901 3.91614 0.925901ZM11.4681 0.925901C12.3641 0.925901 13.1001 1.2139 13.6761 1.7899C14.2521 2.34457 14.5401 3.08057 14.5401 3.9979C14.5401 4.42457 14.4868 4.85124 14.3801 5.2779C14.2735 5.70457 14.0495 6.34457 13.7081 7.1979L11.8521 11.8059H8.68414L10.0601 6.7499C9.52681 6.51524 9.11081 6.16324 8.81214 5.6939C8.51347 5.22457 8.36414 4.65924 8.36414 3.9979C8.36414 3.08057 8.65214 2.34457 9.22814 1.7899C9.82547 1.2139 10.5721 0.925901 11.4681 0.925901Z" fill="#8B8B8B"/>
</svg>
