<svg width="15" height="12" viewBox="0 0 15 12" fill="none" xmlns="http://www.w3.org/2000/svg">
<path d="M5.26014 5.44178C5.79347 5.67644 6.20947 6.02844 6.50814 6.49778C6.80681 6.96711 6.95614 7.52178 6.95614 8.16178C6.95614 9.07911 6.66814 9.82578 6.09214 10.4018C5.51614 10.9564 4.78014 11.2338 3.88414 11.2338C2.98814 11.2338 2.24147 10.9458 1.64414 10.3698C1.06814 9.79378 0.780139 9.05778 0.780139 8.16178C0.780139 7.73511 0.833472 7.30844 0.940139 6.88178C1.04681 6.45511 1.28147 5.81511 1.64414 4.96178L3.50014 0.353777H6.66814L5.26014 5.44178ZM12.8121 5.44178C13.3455 5.67644 13.7615 6.02844 14.0601 6.49778C14.3588 6.96711 14.5081 7.52178 14.5081 8.16178C14.5081 9.07911 14.2201 9.82578 13.6441 10.4018C13.0681 10.9564 12.3321 11.2338 11.4361 11.2338C10.5401 11.2338 9.79347 10.9458 9.19614 10.3698C8.62014 9.79378 8.33214 9.05778 8.33214 8.16178C8.33214 7.73511 8.38547 7.30844 8.49214 6.88178C8.59881 6.45511 8.83347 5.81511 9.19614 4.96178L11.0521 0.353777H14.2201L12.8121 5.44178Z" fill="#8B8B8B"/>
</svg>
