<svg width="21" height="21" viewBox="0 0 21 21" fill="none" xmlns="http://www.w3.org/2000/svg">
<path d="M8.81152 12.1049L12.0644 10.2314L8.81152 8.35791V12.1049Z" fill="black"/>
<path d="M10.0574 0.231445C4.53537 0.231445 0.057373 4.70944 0.057373 10.2314C0.057373 15.7534 4.53537 20.2314 10.0574 20.2314C15.5794 20.2314 20.0574 15.7534 20.0574 10.2314C20.0574 4.70944 15.5794 0.231445 10.0574 0.231445ZM16.3058 10.2417C16.3058 10.2417 16.3058 12.2697 16.0486 13.2477C15.9044 13.7829 15.4823 14.205 14.9471 14.349C13.9691 14.6064 10.0574 14.6064 10.0574 14.6064C10.0574 14.6064 6.15585 14.6064 5.16769 14.3388C4.63242 14.1948 4.21036 13.7726 4.06616 13.2373C3.80875 12.2697 3.80875 10.2314 3.80875 10.2314C3.80875 10.2314 3.80875 8.20355 4.06616 7.22562C4.21021 6.69034 4.64264 6.2579 5.16769 6.11386C6.14563 5.85645 10.0574 5.85645 10.0574 5.85645C10.0574 5.85645 13.9691 5.85645 14.9471 6.12408C15.4823 6.26813 15.9044 6.69034 16.0486 7.22562C16.3162 8.20355 16.3058 10.2417 16.3058 10.2417Z" fill="black"/>
</svg>
